<?xml version="1.0" standalone="no"?><!DOCTYPE svg PUBLIC "-//W3C//DTD SVG 1.1//EN" "http://www.w3.org/Graphics/SVG/1.1/DTD/svg11.dtd"><svg t="1661761309985" class="icon" viewBox="0 0 1024 1024" version="1.1" xmlns="http://www.w3.org/2000/svg" p-id="3563" xmlns:xlink="http://www.w3.org/1999/xlink" width="200" height="200"><path d="M836.843436 316.39502c-68.77027-68.542072-160.195515-106.287745-257.434164-106.287745L166.107155 210.107275 278.930757 97.281627 245.781776 64.132646 76.371388 233.549174 245.781776 402.964678l33.148981-33.148981L166.107155 256.984932l413.301094 0c84.747149 0 164.42177 32.891108 224.341464 92.609211 59.901275 59.700707 92.888574 139.069359 92.888574 223.484957l0 23.414269c0 84.417645-32.987299 163.78425-92.888574 223.484957-59.919694 59.72322-139.588175 92.610234-224.341464 92.610234L109.520369 912.588561l0 46.877657 469.88788 0c97.238648 0 188.663894-37.747719 257.434164-106.283652 68.787666-68.563562 106.672508-159.718655 106.672508-256.69022l0-23.414269C943.515944 476.113675 905.631102 384.952442 836.843436 316.39502L836.843436 316.39502zM836.843436 316.39502" p-id="3564"></path></svg>