<svg xmlns="http://www.w3.org/2000/svg" viewBox="0 0 368.25 88.26"><defs><style>.cls-1{fill:#007eba;fill-rule:evenodd;}</style></defs><g id="图层_2" data-name="图层 2"><g id="图层_1-2" data-name="图层 1"><path class="cls-1" d="M46.19,55.6c1.32,0,1.69.46,1.69,1.75v5c0,1-.25,1.67-1.38,1.67H29.83A1.11,1.11,0,0,1,28.75,63V57.07c0-1,.73-1.47,1.69-1.47Zm-9.26-2.8V24h-10A1.22,1.22,0,0,1,25.8,22.6a1.25,1.25,0,0,1,1.11-1.35H50.16c.66,0,.89.86.89,1.38S50.78,24,50.16,24H39.79l0,4.79V48l0,4.77c2.51,0,11-1.82,11,3.23v7.69a3,3,0,0,1-3.1,3.13H28.54a3.13,3.13,0,0,1-2.77-3.1v-8C25.77,51.07,35.36,52.8,36.93,52.8ZM27.15,46V42.22c-9.78,0-11.1,2.45-11.1-5.69,0-1.18,1.47-1.72,2.46-1.72h8.64v-4c-1,0-11.07,1.36-11.07-3V18.17c0-1.83,3.1-3.84,4.77-3.84h36a4.3,4.3,0,0,1,3.88,3.84v9.38c0,4.81-9.51,3.29-11.26,3.29v4c9.86,0,11.41-2.43,11.41,5.69,0,2.79-7.16,1.72-11.41,1.72V46c4.71,0,11.26-.71,11.26,5.94V67.81c0,4-2.81,5.93-6.62,5.93H22.73c-3.88,0-6.65-1.83-6.65-5.93V51.94C16.08,45.38,22.4,46,27.15,46Z"/><path class="cls-1" d="M58.46,0H41.12V9h15c5.61,0,11.2,4.8,11.2,10.55V41.88h9.59V19.28C76.91,8.19,69.86,0,58.46,0Zm-40,0H35.76V9h-15C15.12,9,9.69,13.76,9.69,19.5V41.88H0V19.28C0,8.48,7.3,0,18.42,0Z"/><path class="cls-1" d="M58.46,88.26H41.12v-9h15c5.66,0,11.2-4.79,11.2-10.58V46.37h9.59V69C76.91,80.11,69.9,88.26,58.46,88.26Zm-40,0H35.76v-9h-15c-5.69,0-11.07-4.79-11.07-10.58V46.37H0V69C0,79.82,7.24,88.26,18.42,88.26Z"/><path d="M133.19,19.68a2.41,2.41,0,0,1-1.52.86V33.09c0,.32-3,1.33-5,1.33h-1.05V31.14h-7.41v13.5c0,.58-2.62,2.07-4.92,2.07h-1.13V31.14h-7.33v2c0,.59-2.65,1.91-5.11,1.91h-.86v-19l6.4,2.42h6.9V9.69l7.49.71c-.08.54-.35,1-1.44,1.13v6.94h7.06l2.57-2.85Zm-21,10.37V19.56h-7.33V30.05Zm13.46,0V19.56h-7.41V30.05Z"/><path d="M172.35,13.71a2.66,2.66,0,0,1-1.56.86V44.8c0,.42-2.65,1.71-4.76,1.71h-.9V43.35H143.06v1.29c0,.7-2.22,2.07-4.6,2.07h-.94V10.2l6,2.38h21.22l2.61-2.89Zm-7.22,28.55V13.67H143.06V42.26ZM157.76,28.8c6.87,1,6.17,5,3.9,5.74.9.78,2.3,2,3.32,2.88-.12.43-.51.63-1,.63H144.19L143.88,37h7.37v-8.9H146L145.67,27h5.58V19.64H144.5l-.31-1.09h13.57l2.38-3.12s2.65,2.14,4.25,3.59c-.11.42-.54.62-1.09.62h-7V27h.94l2.22-3s2.53,2.07,4,3.51c-.12.43-.51.62-1.06.62h-6.12V37h2.07l1.79-2.42a3.22,3.22,0,0,1-1.13-.63A9.58,9.58,0,0,0,157.41,29Z"/><path d="M211.35,13.71a2.66,2.66,0,0,1-1.56.86V44.8c0,.42-2.65,1.71-4.76,1.71h-.9V43.35H182.06v1.29c0,.7-2.22,2.07-4.6,2.07h-.94V10.2l6,2.38h21.22l2.61-2.89Zm-7.22,28.55V13.67H182.06V42.26ZM196.76,28.8c6.87,1,6.17,5,3.9,5.74.9.78,2.3,2,3.32,2.88-.12.43-.51.63-1,.63H183.19L182.88,37h7.37v-8.9H185L184.67,27h5.58V19.64H183.5l-.31-1.09h13.57l2.38-3.12s2.65,2.14,4.25,3.59c-.11.42-.54.62-1.09.62h-7V27h.94l2.22-3s2.53,2.07,4,3.51c-.12.43-.51.62-1.06.62h-6.12V37h2.07l1.79-2.42a3.22,3.22,0,0,1-1.13-.63A9.58,9.58,0,0,0,196.41,29Z"/><path d="M248.28,26.46c-.23.32-.62.51-1.52.28a81,81,0,0,1-9.16,2.57c2.61,5.27,7.84,7.92,13,9.56l-.07.43c-2.11.46-3.67,2.18-4.45,4.79-4.76-3.27-7.76-7.33-9.36-14.58-.86.15-1.72.35-2.58.5,3.28,5.54,3.05,12.17,1,14.82-1.09,1.41-3.36,1.88-6.44,1.88a5.69,5.69,0,0,0-1-3.47,7,7,0,0,0-3.32-1.68v-.39c1.64.15,4.1.31,5,.31.55,0,1-.08,1.17-.43a8.22,8.22,0,0,0,.67-3,53.66,53.66,0,0,1-16.85,5.85l-.24-.51a38.34,38.34,0,0,0,16.66-11.89l0-.28a58.13,58.13,0,0,1-15.25,6.17l-.2-.43a41,41,0,0,0,12.95-10.69,52.66,52.66,0,0,1-12.52,4.64l-.23-.43a38.66,38.66,0,0,0,11.27-8.62H220.2l-.31-1.09h17.94l2.73-3.47s1.52,1.17,3.08,2.42c.08-1.05.08-2.38.08-3.47H220.4c.35,2.88-.63,4.91-2.07,5.81a2.76,2.76,0,0,1-4.06-1.33,2.86,2.86,0,0,1,1.84-3.51A5.51,5.51,0,0,0,219,12.74h.47a16,16,0,0,1,.78,2.37h10.45c-.15-.07-.27-.15-.42-.23a7.44,7.44,0,0,0-2.54-4.83l.23-.2c8.58-1,8.58,3.78,6,5.26h9.36l2.65-2.69,4.64,4.37c-.31.35-.7.47-1.52.51a25.85,25.85,0,0,1-4.75,3c.42.32.77.63,1.13.94-.08.43-.55.62-1.1.62h-9.82A24.14,24.14,0,0,1,230,25.29,16.56,16.56,0,0,1,233.5,29a62.67,62.67,0,0,0,9.25-7.18Z"/><path d="M288.73,14a2.59,2.59,0,0,1-1.56.86V44.76c0,.39-2.66,1.71-4.76,1.71h-.9V43.39H260.8V44.6c0,.7-2.22,2.07-4.6,2.07h-.94V10.47l6,2.38h19.89L283.73,10ZM260.8,14V31.3a28.89,28.89,0,0,0,8.39-5.3,19.43,19.43,0,0,1-2.77-4.14,27.44,27.44,0,0,1-4.84,4.21l-.31-.42A36.46,36.46,0,0,0,265.4,14ZM281.51,42.3V27.21c-1.68.62-2.77,2.14-3.24,4.36A24.23,24.23,0,0,1,271.41,28,35,35,0,0,1,261,31.85l-.16-.35V42.3Zm-16.85-6.4c16.27-2.81,15,6.94,10.14,5.78a31.75,31.75,0,0,0-10.22-5.31ZM266.18,14l5.27,2.22c-.16.39-.51.51-1.25.43a14,14,0,0,1-1.13,1.91h5l2.69-2.5L281,19.72c-.27.43-.62.54-1.56.62a20.2,20.2,0,0,1-4.33,5,38.16,38.16,0,0,0,6.36,1.21V14Zm2.11,5.65a17.21,17.21,0,0,1-1.17,1.48,14.55,14.55,0,0,0,4.09,2.85,20.36,20.36,0,0,0,2.85-4.33Zm-.82,10.34c10.92-1.53,8.66,6.63,4.68,4.95a12.55,12.55,0,0,0-4.87-4.45Z"/><path d="M328.47,29.66a2.31,2.31,0,0,1-1.56.74c-.35,7.73-1,11.12-3.08,12.56-1.29.94-2.85,1.41-5.58,1.41,0-1.64-.12-3-.82-3.75a7.15,7.15,0,0,0-3.82-1.87l0-.39c1.6.12,4.17.23,5,.23a1.47,1.47,0,0,0,1.13-.31c.74-.62,1.13-3.59,1.37-8.85h-10v15c0,.59-2.65,2.11-4.91,2.11h-1.17V29.43H293l-.36-1.09h12.41V19.72h-9.25l-.35-1.09h9.6V9.73l7.37.7c-.08.47-.31.86-1.29,1v7.18h4.41l2.1-2.5,5.23,3.74a2.18,2.18,0,0,1-1.44.67l-.59,7.68,2.77-2.57Zm-17.32-1.32h4.06l.66-8.62h-4.72Zm5.5-17.12c14.78-.82,12.29,10.37,6.36,7.87a24.6,24.6,0,0,0-6.59-7.64Z"/><path d="M368.25,17.14c-.31.35-.67.43-1.48.51a44.47,44.47,0,0,1-4,2.93l2.69,2a2.49,2.49,0,0,1-1.44.74v7.1c0,.28-2.62,1.09-4.22,1.09h-.89V29.66h-6.2v4.45h7.13l2.27-2.42,4.64,3.47a2.15,2.15,0,0,1-1.41.74v8.62c0,.35-2.49,1.41-4.21,1.41h-.9V43.35h-7.52v1.48c0,.59-2.15,1.8-4.41,1.8h-.82V21.47a2.53,2.53,0,0,1-3.31-1.67,23.08,23.08,0,0,1-3.75,3.51h-.47A48.1,48.1,0,0,0,341,17.49h-4.06a40,40,0,0,1-6.12,9.44l-.35-.19a89.77,89.77,0,0,0,3.15-17.16l7.3,1.71c-.16.43-.47.67-1.48.59-.59,1.44-1.21,3-1.95,4.52h3.19L343,14l2.92,2.54.23-.12a3.06,3.06,0,0,0,.94-3.12l.51,0a12.73,12.73,0,0,1,1,2.19h5.54a6.26,6.26,0,0,1-.62-.43,10.92,10.92,0,0,0-1.88-5.62l.28-.19c7.68.66,7.72,4.83,5.53,6.24h3.67l2.61-2.62ZM340.09,38.36c1.68-.66,3.51-1.44,5.34-2.18l.16.35a95.39,95.39,0,0,1-7.65,7.95,3.84,3.84,0,0,1-1.67,2.07l-3.08-5.69c1.59-.86,1.83-1.29,1.83-2.19V23.31l5.93.58c0,.35-.28.62-.86.74Zm22-18.33-.39-3.47H348.9a5.86,5.86,0,0,1,0,3.35l4,1.6h5.62l2.26-2.42Zm-3.16,8.54v-6h-6.2v6Zm-6.2,6.63v7.06h7.52V35.2Z"/><path d="M110.55,62.87l-1.56.24,0,11.78h-.89l-7.56-10.51.05,9.54,2.08.26v.61H98.13v-.61l1.56-.24.07-10.59L99.52,63l-1.31-.17v-.61h3.18l6.8,9.45,0-8.58-2.09-.26v-.61h4.48Z"/><path d="M123,74.18v.61h-5.21v-.61L119.5,74l-1.09-3.3h-4.22l-1,3.28,1.77.23v.61h-4.08v-.61l1.49-.23,3.91-11.76h1.26l4,11.82ZM118.19,70l-1.92-5.82L114.41,70Z"/><path d="M128.93,63c0,1.66,0,3.35,0,5.08V69c0,1.66,0,3.34,0,5l1.87.19v.61H125v-.61l1.87-.19c.06-1.65.06-3.33.06-5v-.87c0-1.68,0-3.38-.06-5.08h-2.78l-.63,2.65h-.92l.14-3.4h10.45l.14,3.4h-.92L131.72,63Z"/><path d="M138.35,63.06c0,1.65,0,3.31,0,5V69c0,1.66,0,3.36,0,5l1.7.19v.61h-5.41v-.61l1.69-.19c0-1.65,0-3.33,0-5v-.87c0-1.67,0-3.37,0-5l-1.69-.19v-.61h5.41v.61Z"/><path d="M153,68.53c0,4.15-2.74,6.56-5.75,6.56s-5.76-2.31-5.76-6.56S144.3,62,147.29,62,153,64.26,153,68.53Zm-5.75,5.8c2.47,0,3.59-2.72,3.59-5.8s-1.12-5.83-3.59-5.83-3.59,2.74-3.59,5.83S144.83,74.33,147.29,74.33Z"/><path d="M166.86,62.87l-1.57.24,0,11.78h-.88l-7.57-10.51.06,9.54,2.07.26v.61h-4.49v-.61l1.57-.24.06-10.59-.23-.31-1.31-.17v-.61h3.18l6.79,9.45,0-8.58-2.09-.26v-.61h4.49Z"/><path d="M179.27,74.18v.61h-5.22v-.61L175.8,74l-1.09-3.3H170.5L169.44,74l1.77.23v.61h-4.08v-.61l1.5-.23,3.91-11.76h1.25l4,11.82ZM174.49,70l-1.92-5.82L170.72,70Z"/><path d="M189.77,71.22l-.08,3.57h-9.37l0-.61L182,74c0-1.67,0-3.32,0-4.86v-1c0-1.68,0-3.37,0-5l-1.68-.19v-.61h5.46v.61l-1.75.19c0,1.66,0,3.33,0,5v1.21c0,1.46,0,3.13,0,4.81h4.13l.66-2.82Z"/><path d="M205.48,71.22l-.08,3.57H196l0-.61,1.66-.19c0-1.67,0-3.32,0-4.86v-1c0-1.68,0-3.37,0-5L196,62.87v-.61h5.46v.61l-1.75.19c0,1.66,0,3.33,0,5v1.21c0,1.46,0,3.13,0,4.81h4.13l.66-2.82Z"/><path d="M210.68,63.06c0,1.65,0,3.31,0,5V69c0,1.66,0,3.36,0,5l1.7.19v.61H207v-.61l1.68-.19c0-1.65,0-3.33,0-5v-.87c0-1.67,0-3.37,0-5L207,62.87v-.61h5.4v.61Z"/><path d="M219.64,62.26c2.81,0,4.15,1.26,4.15,3,0,1.31-.83,2.5-3.11,2.94,2.69.32,3.79,1.55,3.79,3.14s-1.33,3.44-5.13,3.44h-5.15v-.61l1.68-.19c0-1.69,0-3.38,0-5.12V68c0-1.67,0-3.33,0-5l-1.68-.19v-.61Zm-1.77.7c0,1.63,0,3.28,0,5h.92c2.12,0,3.11-.87,3.11-2.6S221,63,219.06,63Zm1.19,11.11c2.2,0,3.37-.93,3.37-2.7s-1.09-2.74-3.55-2.74h-1c0,2,0,3.73,0,5.44Z"/><path d="M237.14,74.18v.61a5.21,5.21,0,0,1-1.55.2c-1.28,0-1.85-.36-2.06-1.33l-.71-2.83c-.34-1.47-.89-1.91-2.4-1.91h-.95c0,1.75,0,3.42,0,5.07l1.71.19v.61h-5.4v-.61l1.68-.19c0-1.65,0-3.33,0-5v-.87c0-1.67,0-3.37,0-5l-1.68-.19v-.61h5.44c2.85,0,4.48,1.21,4.48,3.25,0,1.44-1,2.75-3.31,3.14a2.79,2.79,0,0,1,2.45,2.48l.8,2.91Zm-6.26-5.94a2.59,2.59,0,0,0,2.89-2.73c0-1.64-.88-2.55-2.81-2.55h-1.47c0,1.66,0,3.33,0,5.28Z"/><path d="M250.05,74.18v.61h-5.21v-.61l1.75-.21-1.09-3.3h-4.22L240.23,74l1.77.23v.61h-4.08v-.61l1.49-.23,3.91-11.76h1.26l4,11.82ZM245.28,70l-1.92-5.82L241.5,70Z"/><path d="M262.45,74.18v.61a5.16,5.16,0,0,1-1.55.2c-1.27,0-1.85-.36-2.06-1.33l-.71-2.83c-.34-1.47-.88-1.91-2.4-1.91h-.95c0,1.75,0,3.42,0,5.07l1.71.19v.61h-5.4v-.61l1.68-.19c0-1.65,0-3.33,0-5v-.87c0-1.67,0-3.37,0-5l-1.68-.19v-.61h5.44c2.85,0,4.49,1.21,4.49,3.25,0,1.44-1,2.75-3.32,3.14a2.78,2.78,0,0,1,2.45,2.48L261,74Zm-6.26-5.94a2.58,2.58,0,0,0,2.89-2.73c0-1.64-.88-2.55-2.8-2.55H254.8c0,1.66,0,3.33,0,5.28Z"/><path d="M268.91,69.65c0,1.86,0,3.06,0,4.34l1.87.19v.61H265v-.61l1.89-.19c0-1.21,0-2.38,0-4.1L263.55,63l-1.29-.14v-.61h5.32v.61l-1.78.2,2.73,5.87,2.72-5.83-1.73-.24v-.61h4.18v.61l-1.58.24Z"/><path d="M290.89,68.53c0,4.15-2.74,6.56-5.75,6.56s-5.76-2.31-5.76-6.56S282.15,62,285.14,62,290.89,64.26,290.89,68.53Zm-5.75,5.8c2.47,0,3.59-2.72,3.59-5.8s-1.12-5.83-3.59-5.83-3.58,2.74-3.58,5.83S282.68,74.33,285.14,74.33Z"/><path d="M296.09,63c0,1.63,0,3.29,0,5.05h2.81l.24-1.84h.78v4.47h-.78l-.24-1.94h-2.81c0,1.86,0,3.55,0,5.24l1.82.19v.61h-5.52v-.61l1.68-.19c0-1.65,0-3.33,0-5v-.87c0-1.67,0-3.37,0-5l-1.68-.19v-.61h9.38l.07,3.28h-.92L300.37,63Z"/><path d="M318.21,71.34l0,2.8a7.35,7.35,0,0,1-3.76,1A6.14,6.14,0,0,1,308,68.53,6.25,6.25,0,0,1,314.47,62a7.36,7.36,0,0,1,3.57.92v2.84h-1l-.58-2.6a3.79,3.79,0,0,0-1.76-.41c-2.55,0-4.52,2-4.52,5.83s1.85,5.78,4.48,5.78a4.4,4.4,0,0,0,2-.41l.57-2.56Z"/><path d="M331.38,63.06c0,1.65,0,3.31,0,5V69c0,1.66,0,3.34,0,5l1.7.19v.61h-5.37v-.61l1.65-.19c0-1.62,0-3.32,0-5.27h-5.73c0,1.94,0,3.62,0,5.27l1.66.19v.61H320v-.61l1.69-.19c0-1.65,0-3.33,0-5v-.87c0-1.67,0-3.35,0-5L320,62.87v-.61h5.37v.61l-1.66.19c0,1.61,0,3.28,0,5h5.73c0-1.65,0-3.31,0-5l-1.65-.19v-.61h5.37v.61Z"/><path d="M338.59,63.06c0,1.65,0,3.31,0,5V69c0,1.66,0,3.36,0,5l1.7.19v.61h-5.4v-.61l1.68-.19c0-1.65,0-3.33,0-5v-.87c0-1.67,0-3.37,0-5l-1.68-.19v-.61h5.4v.61Z"/><path d="M354.35,62.87l-1.57.24,0,11.78h-.88l-7.56-10.51,0,9.54,2.07.26v.61h-4.49v-.61l1.57-.24.06-10.59-.23-.31L342,62.87v-.61h3.18l6.8,9.45,0-8.58-2.09-.26v-.61h4.49Z"/><path d="M366.76,74.18v.61h-5.22v-.61l1.75-.21-1.09-3.3H358L356.93,74l1.77.23v.61h-4.08v-.61l1.5-.23L360,62.19h1.26l4,11.82ZM362,70l-1.92-5.82L358.21,70Z"/></g></g></svg>