<svg xmlns="http://www.w3.org/2000/svg" xmlns:xlink="http://www.w3.org/1999/xlink" viewBox="0 0 471.23 56.33"><defs><style>.cls-1{fill:#004098;}.cls-2{fill:url(#未命名的渐变_9);}</style><radialGradient id="未命名的渐变_9" cx="16.3" cy="26.66" r="26.4" gradientUnits="userSpaceOnUse"><stop offset="0" stop-color="#f6ab00"/><stop offset="1" stop-color="#ffe100"/></radialGradient></defs><g id="图层_2" data-name="图层 2"><g id="图层_1-2" data-name="图层 1"><path class="cls-1" d="M88.64,51.49,85.8,46.55H84.25v4.94h-2V39.15h4.26a5.34,5.34,0,0,1,2.41.49A3.47,3.47,0,0,1,90.37,41a3.6,3.6,0,0,1,.49,1.87,3.69,3.69,0,0,1-.7,2.2A3.62,3.62,0,0,1,88,46.38l3.06,5.11Zm-4.39-6.55h2.24a2.32,2.32,0,0,0,1.71-.57,2,2,0,0,0,.58-1.53,2,2,0,0,0-.57-1.5,2.41,2.41,0,0,0-1.72-.54H84.25Z"/><path class="cls-1" d="M102,47.35H94.52A2.7,2.7,0,0,0,97.31,50a2.37,2.37,0,0,0,2.31-1.37h2.18a4.37,4.37,0,0,1-1.6,2.21,4.76,4.76,0,0,1-2.89.86A5,5,0,0,1,94.79,51a4.49,4.49,0,0,1-1.74-1.77,5.45,5.45,0,0,1-.63-2.66A5.56,5.56,0,0,1,93,43.93a4.23,4.23,0,0,1,1.72-1.76,5.08,5.08,0,0,1,2.55-.63,5,5,0,0,1,2.47.61,4.36,4.36,0,0,1,1.69,1.69,5.16,5.16,0,0,1,.6,2.52A5.9,5.9,0,0,1,102,47.35Zm-2-1.63a2.34,2.34,0,0,0-.8-1.8,2.88,2.88,0,0,0-1.94-.67,2.55,2.55,0,0,0-1.79.67,2.73,2.73,0,0,0-.89,1.8Z"/><path class="cls-1" d="M105.19,51.23a3.52,3.52,0,0,1-1.45-1.13,2.79,2.79,0,0,1-.57-1.61h2.1a1.42,1.42,0,0,0,.59,1,2.16,2.16,0,0,0,1.36.42,2.31,2.31,0,0,0,1.33-.33,1,1,0,0,0,.47-.85.86.86,0,0,0-.53-.81,9.24,9.24,0,0,0-1.66-.59,15.63,15.63,0,0,1-1.79-.59,3,3,0,0,1-1.2-.87,2.25,2.25,0,0,1-.51-1.54,2.39,2.39,0,0,1,.46-1.43,3.1,3.1,0,0,1,1.33-1,4.89,4.89,0,0,1,2-.38,4.11,4.11,0,0,1,2.69.85,3,3,0,0,1,1.09,2.3h-2a1.46,1.46,0,0,0-.54-1,2,2,0,0,0-1.29-.39,2.11,2.11,0,0,0-1.23.3,1,1,0,0,0-.43.8.88.88,0,0,0,.29.66,2,2,0,0,0,.69.42c.27.1.68.22,1.21.38a14.46,14.46,0,0,1,1.75.57,3.36,3.36,0,0,1,1.18.87,2.33,2.33,0,0,1,.52,1.51,2.54,2.54,0,0,1-.47,1.49,3,3,0,0,1-1.3,1,4.86,4.86,0,0,1-2,.37A4.91,4.91,0,0,1,105.19,51.23Z"/><path class="cls-1" d="M121.74,47.35h-7.48a2.7,2.7,0,0,0,2.79,2.6,2.37,2.37,0,0,0,2.31-1.37h2.18a4.39,4.39,0,0,1-1.61,2.21,4.73,4.73,0,0,1-2.88.86,5,5,0,0,1-2.52-.63,4.49,4.49,0,0,1-1.74-1.77,5.45,5.45,0,0,1-.63-2.66,5.55,5.55,0,0,1,.61-2.66,4.31,4.31,0,0,1,1.73-1.76,5.39,5.39,0,0,1,5,0,4.27,4.27,0,0,1,1.68,1.69,5.06,5.06,0,0,1,.61,2.52A7.19,7.19,0,0,1,121.74,47.35Zm-2-1.63a2.31,2.31,0,0,0-.8-1.8,2.84,2.84,0,0,0-1.93-.67,2.59,2.59,0,0,0-1.8.67,2.82,2.82,0,0,0-.89,1.8Z"/><path class="cls-1" d="M123.38,43.94a4.46,4.46,0,0,1,4-2.4,4.14,4.14,0,0,1,2,.46,4.07,4.07,0,0,1,1.38,1.12V41.7h2v9.79h-2V50a4.07,4.07,0,0,1-1.41,1.15A4.54,4.54,0,0,1,125,51a4.55,4.55,0,0,1-1.66-1.81,5.53,5.53,0,0,1-.61-2.64A5.41,5.41,0,0,1,123.38,43.94Zm7,.89a2.92,2.92,0,0,0-1.09-1.14,2.91,2.91,0,0,0-4,1.11,3.51,3.51,0,0,0-.42,1.75,3.63,3.63,0,0,0,.42,1.78,2.94,2.94,0,0,0,1.1,1.16,2.81,2.81,0,0,0,1.45.4,2.88,2.88,0,0,0,1.46-.39,2.92,2.92,0,0,0,1.09-1.14,3.62,3.62,0,0,0,.42-1.77A3.53,3.53,0,0,0,130.36,44.83Z"/><path class="cls-1" d="M138.34,42a3.46,3.46,0,0,1,1.75-.42v2.1h-.52a2.48,2.48,0,0,0-1.8.6,2.91,2.91,0,0,0-.61,2.1v5.15h-2V41.7h2v1.42A3.2,3.2,0,0,1,138.34,42Z"/><path class="cls-1" d="M141.54,43.93a4.28,4.28,0,0,1,1.69-1.76,4.85,4.85,0,0,1,2.49-.63,4.92,4.92,0,0,1,2.94.85,4.14,4.14,0,0,1,1.57,2.41h-2.18a2.32,2.32,0,0,0-.86-1.14,2.52,2.52,0,0,0-1.47-.41,2.44,2.44,0,0,0-2,.88,3.72,3.72,0,0,0-.74,2.46,3.77,3.77,0,0,0,.74,2.47,2.44,2.44,0,0,0,2,.89,2.26,2.26,0,0,0,2.33-1.55h2.18a4.32,4.32,0,0,1-1.6,2.37,4.68,4.68,0,0,1-2.91.88,4.85,4.85,0,0,1-2.49-.63,4.37,4.37,0,0,1-1.69-1.77,6,6,0,0,1,0-5.32Z"/><path class="cls-1" d="M159,42a3.46,3.46,0,0,1,1.39,1.42,4.74,4.74,0,0,1,.51,2.28v5.77h-2V46a2.84,2.84,0,0,0-.66-2,2.37,2.37,0,0,0-1.79-.7,2.42,2.42,0,0,0-1.81.7,2.84,2.84,0,0,0-.66,2v5.47h-2V38.35h2v4.49a3.5,3.5,0,0,1,1.3-1,4.48,4.48,0,0,1,1.73-.34A4.08,4.08,0,0,1,159,42Z"/><path class="cls-1" d="M167.51,42a6,6,0,0,1,2.29-2.25,6.79,6.79,0,0,1,6.68.16,5.54,5.54,0,0,1,2.23,2.75h-2.43a3.29,3.29,0,0,0-1.34-1.46,3.94,3.94,0,0,0-2-.48,4.36,4.36,0,0,0-2.18.55,4,4,0,0,0-1.51,1.58,5.6,5.6,0,0,0,0,4.8,3.93,3.93,0,0,0,1.51,1.59,4.26,4.26,0,0,0,2.18.56,3.94,3.94,0,0,0,2-.48,3.24,3.24,0,0,0,1.34-1.46h2.43a5.47,5.47,0,0,1-2.23,2.74,6.49,6.49,0,0,1-3.51,1,6.37,6.37,0,0,1-3.18-.81,6,6,0,0,1-2.28-2.25,6.64,6.64,0,0,1,0-6.5Z"/><path class="cls-1" d="M189.62,47.35h-7.48a2.7,2.7,0,0,0,2.79,2.6,2.37,2.37,0,0,0,2.31-1.37h2.18a4.33,4.33,0,0,1-1.61,2.21,4.71,4.71,0,0,1-2.88.86,5,5,0,0,1-2.52-.63,4.49,4.49,0,0,1-1.74-1.77,5.45,5.45,0,0,1-.63-2.66,5.67,5.67,0,0,1,.61-2.66,4.31,4.31,0,0,1,1.73-1.76,5.39,5.39,0,0,1,5,0,4.27,4.27,0,0,1,1.68,1.69,5.06,5.06,0,0,1,.61,2.52A7.19,7.19,0,0,1,189.62,47.35Zm-2.05-1.63a2.28,2.28,0,0,0-.8-1.8,2.84,2.84,0,0,0-1.93-.67,2.59,2.59,0,0,0-1.8.67,2.77,2.77,0,0,0-.88,1.8Z"/><path class="cls-1" d="M198.33,42a3.43,3.43,0,0,1,1.43,1.42,4.74,4.74,0,0,1,.52,2.28v5.77h-2V46a2.84,2.84,0,0,0-.66-2,2.36,2.36,0,0,0-1.79-.7A2.42,2.42,0,0,0,194,44a2.84,2.84,0,0,0-.66,2v5.47h-2V41.7h2v1.12a3.38,3.38,0,0,1,1.27-.94,4.11,4.11,0,0,1,1.64-.34A4.39,4.39,0,0,1,198.33,42Z"/><path class="cls-1" d="M204.86,43.36v5.41a1.07,1.07,0,0,0,.26.8,1.33,1.33,0,0,0,.88.23h1.24v1.69h-1.6a3,3,0,0,1-2.09-.64,2.61,2.61,0,0,1-.73-2.08V43.36h-1.16V41.7h1.16V39.27h2V41.7h2.38v1.66Z"/><path class="cls-1" d="M217.65,47.35h-7.48A2.7,2.7,0,0,0,213,50a2.37,2.37,0,0,0,2.31-1.37h2.19a4.45,4.45,0,0,1-1.61,2.21,4.76,4.76,0,0,1-2.89.86,5,5,0,0,1-2.51-.63,4.49,4.49,0,0,1-1.74-1.77,5.45,5.45,0,0,1-.63-2.66,5.55,5.55,0,0,1,.61-2.66,4.29,4.29,0,0,1,1.72-1.76,5.08,5.08,0,0,1,2.55-.63,5,5,0,0,1,2.47.61,4.29,4.29,0,0,1,1.69,1.69,5.16,5.16,0,0,1,.6,2.52A5.9,5.9,0,0,1,217.65,47.35Zm-2-1.63a2.31,2.31,0,0,0-.8-1.8,2.86,2.86,0,0,0-1.94-.67,2.57,2.57,0,0,0-1.79.67,2.73,2.73,0,0,0-.89,1.8Z"/><path class="cls-1" d="M222.56,42a3.49,3.49,0,0,1,1.75-.42v2.1h-.51a2.49,2.49,0,0,0-1.81.6,3,3,0,0,0-.61,2.1v5.15h-2V41.7h2v1.42A3.28,3.28,0,0,1,222.56,42Z"/><path class="cls-1" d="M234.19,43.36h-1.81v8.13h-2V43.36h-1.15V41.7h1.15V41a3.09,3.09,0,0,1,.9-2.46,4.3,4.3,0,0,1,2.82-.77v1.69a1.91,1.91,0,0,0-1.3.34,1.58,1.58,0,0,0-.37,1.2v.69h1.81Z"/><path class="cls-1" d="M237.37,51a4.54,4.54,0,0,1-1.76-1.77,5.34,5.34,0,0,1-.64-2.66,5.24,5.24,0,0,1,.66-2.65,4.55,4.55,0,0,1,1.79-1.77,5.17,5.17,0,0,1,2.54-.63,5.12,5.12,0,0,1,2.54.63,4.51,4.51,0,0,1,1.8,1.77,5.24,5.24,0,0,1,.66,2.65,5.17,5.17,0,0,1-.68,2.65A4.63,4.63,0,0,1,242.44,51a5.29,5.29,0,0,1-2.57.63A5,5,0,0,1,237.37,51Zm4-1.5a2.78,2.78,0,0,0,1.11-1.12,3.54,3.54,0,0,0,.43-1.81,3.68,3.68,0,0,0-.41-1.8,2.65,2.65,0,0,0-1.09-1.11,3,3,0,0,0-2.9,0,2.59,2.59,0,0,0-1.06,1.11,3.8,3.8,0,0,0-.39,1.8,3.42,3.42,0,0,0,.81,2.44,2.65,2.65,0,0,0,2,.86A3,3,0,0,0,241.34,49.52Z"/><path class="cls-1" d="M249.81,42a3.51,3.51,0,0,1,1.75-.42v2.1h-.51a2.46,2.46,0,0,0-1.8.6,2.91,2.91,0,0,0-.62,2.1v5.15h-2V41.7h2v1.42A3.28,3.28,0,0,1,249.81,42Z"/><path class="cls-1" d="M264.83,39.9a5.45,5.45,0,0,1,2.29,2.17,6.5,6.5,0,0,1,.81,3.29,6.35,6.35,0,0,1-.81,3.27,5.42,5.42,0,0,1-2.29,2.13,7.7,7.7,0,0,1-3.46.73h-4V39.15h4A7.57,7.57,0,0,1,264.83,39.9Zm-.14,8.77a4.52,4.52,0,0,0,1.16-3.31A4.64,4.64,0,0,0,264.69,42a4.35,4.35,0,0,0-3.32-1.21h-2v9h2A4.45,4.45,0,0,0,264.69,48.67Z"/><path class="cls-1" d="M269.68,40a1.28,1.28,0,0,1-.37-.92,1.28,1.28,0,0,1,1.3-1.3,1.22,1.22,0,0,1,.9.38,1.23,1.23,0,0,1,.38.92,1.24,1.24,0,0,1-.38.92,1.22,1.22,0,0,1-.9.38A1.27,1.27,0,0,1,269.68,40Zm1.92,1.67v9.79h-2V41.7Z"/><path class="cls-1" d="M279.87,42a3.8,3.8,0,0,1,1.38,1.12V41.7h2v9.95a5,5,0,0,1-.57,2.41,4,4,0,0,1-1.64,1.66,5.2,5.2,0,0,1-2.57.61,5.59,5.59,0,0,1-3.3-.94,3.42,3.42,0,0,1-1.49-2.53h2a2.25,2.25,0,0,0,1,1.24,3.38,3.38,0,0,0,1.8.47,2.72,2.72,0,0,0,2-.75,2.93,2.93,0,0,0,.75-2.17V50a4.11,4.11,0,0,1-1.39,1.16,4.25,4.25,0,0,1-2,.47,4.3,4.3,0,0,1-2.34-.65,4.57,4.57,0,0,1-1.67-1.81,5.53,5.53,0,0,1-.61-2.64,5.41,5.41,0,0,1,.61-2.61,4.53,4.53,0,0,1,1.67-1.77,4.46,4.46,0,0,1,2.34-.63A4.23,4.23,0,0,1,279.87,42Zm1,2.83a2.92,2.92,0,0,0-1.09-1.14,2.88,2.88,0,0,0-1.46-.39,2.89,2.89,0,0,0-2.55,1.5,3.51,3.51,0,0,0-.41,1.75,3.63,3.63,0,0,0,.41,1.78,2.89,2.89,0,0,0,1.11,1.16,2.75,2.75,0,0,0,1.44.4,2.88,2.88,0,0,0,1.46-.39,2.92,2.92,0,0,0,1.09-1.14,3.62,3.62,0,0,0,.42-1.77A3.53,3.53,0,0,0,280.83,44.83Z"/><path class="cls-1" d="M285.71,40a1.24,1.24,0,0,1-.37-.92,1.22,1.22,0,0,1,.37-.92,1.26,1.26,0,0,1,.92-.38,1.24,1.24,0,0,1,.91.38,1.22,1.22,0,0,1,.37.92,1.28,1.28,0,0,1-1.28,1.3A1.26,1.26,0,0,1,285.71,40Zm1.92,1.67v9.79h-2V41.7Z"/><path class="cls-1" d="M292.3,43.36v5.41a1.07,1.07,0,0,0,.26.8,1.33,1.33,0,0,0,.88.23h1.24v1.69h-1.6a3,3,0,0,1-2.09-.64,2.61,2.61,0,0,1-.73-2.08V43.36H289.1V41.7h1.16V39.27h2V41.7h2.38v1.66Z"/><path class="cls-1" d="M296.13,43.94a4.46,4.46,0,0,1,4-2.4,4.18,4.18,0,0,1,2,.46,4.07,4.07,0,0,1,1.38,1.12V41.7h2v9.79h-2V50a4.07,4.07,0,0,1-1.41,1.15,4.54,4.54,0,0,1-4.33-.19,4.55,4.55,0,0,1-1.66-1.81,5.53,5.53,0,0,1-.61-2.64A5.41,5.41,0,0,1,296.13,43.94Zm7,.89A2.92,2.92,0,0,0,302,43.69a2.88,2.88,0,0,0-1.46-.39,3,3,0,0,0-1.46.38A2.94,2.94,0,0,0,298,44.8a3.51,3.51,0,0,0-.42,1.75,3.63,3.63,0,0,0,.42,1.78,2.94,2.94,0,0,0,1.1,1.16,2.81,2.81,0,0,0,1.45.4A2.88,2.88,0,0,0,302,49.5a2.92,2.92,0,0,0,1.09-1.14,3.62,3.62,0,0,0,.42-1.77A3.53,3.53,0,0,0,303.11,44.83Z"/><path class="cls-1" d="M309.91,38.35V51.49h-2V38.35Z"/><path class="cls-1" d="M326.34,39.15V51.49h-2v-5.4H318.5v5.4h-2V39.15h2v5.29h5.81V39.15Z"/><path class="cls-1" d="M337.51,41.7v9.79h-2V50.34a3.33,3.33,0,0,1-1.25.95,4,4,0,0,1-1.65.34,4.39,4.39,0,0,1-2.07-.48,3.4,3.4,0,0,1-1.44-1.42,4.56,4.56,0,0,1-.52-2.27V41.7h2v5.46a2.86,2.86,0,0,0,.65,2,2.64,2.64,0,0,0,3.6,0,2.77,2.77,0,0,0,.67-2V41.7Z"/><path class="cls-1" d="M353.74,42a3.52,3.52,0,0,1,1.44,1.42,4.63,4.63,0,0,1,.52,2.28v5.77h-2V46a2.84,2.84,0,0,0-.66-2,2.37,2.37,0,0,0-1.79-.7,2.42,2.42,0,0,0-1.81.7,2.84,2.84,0,0,0-.66,2v5.47h-2V46a2.84,2.84,0,0,0-.66-2,2.37,2.37,0,0,0-1.79-.7,2.42,2.42,0,0,0-1.81.7,2.84,2.84,0,0,0-.66,2v5.47h-2V41.7h2v1.12a3.42,3.42,0,0,1,1.26-.94,4.07,4.07,0,0,1,1.63-.34,4.4,4.4,0,0,1,2.1.5,3.35,3.35,0,0,1,1.42,1.44,3.31,3.31,0,0,1,1.39-1.41,4.06,4.06,0,0,1,2-.53A4.39,4.39,0,0,1,353.74,42Z"/><path class="cls-1" d="M357.86,43.94a4.46,4.46,0,0,1,4-2.4,4.21,4.21,0,0,1,2,.46,4,4,0,0,1,1.37,1.12V41.7h2v9.79h-2V50a4,4,0,0,1-1.4,1.15,4.31,4.31,0,0,1-2,.46,4.25,4.25,0,0,1-2.31-.65,4.55,4.55,0,0,1-1.66-1.81,5.53,5.53,0,0,1-.61-2.64A5.41,5.41,0,0,1,357.86,43.94Zm7,.89a2.86,2.86,0,0,0-2.55-1.53,2.93,2.93,0,0,0-1.45.38,2.87,2.87,0,0,0-1.09,1.12,3.51,3.51,0,0,0-.42,1.75,3.63,3.63,0,0,0,.42,1.78,2.81,2.81,0,0,0,1.1,1.16,2.77,2.77,0,0,0,1.44.4,2.86,2.86,0,0,0,2.55-1.53,3.62,3.62,0,0,0,.42-1.77A3.53,3.53,0,0,0,364.84,44.83Z"/><path class="cls-1" d="M376.62,42a3.43,3.43,0,0,1,1.43,1.42,4.63,4.63,0,0,1,.52,2.28v5.77h-2V46a2.84,2.84,0,0,0-.66-2,2.34,2.34,0,0,0-1.79-.7,2.38,2.38,0,0,0-1.8.7,2.8,2.8,0,0,0-.67,2v5.47h-2V41.7h2v1.12a3.46,3.46,0,0,1,1.27-.94,4.15,4.15,0,0,1,1.64-.34A4.39,4.39,0,0,1,376.62,42Z"/><path class="cls-1" d="M380.9,40a1.24,1.24,0,0,1-.38-.92,1.3,1.3,0,0,1,1.3-1.3,1.28,1.28,0,0,1,1.28,1.3,1.28,1.28,0,0,1-.37.92,1.25,1.25,0,0,1-.91.38A1.23,1.23,0,0,1,380.9,40Zm1.91,1.67v9.79h-2V41.7Z"/><path class="cls-1" d="M387.49,43.36v5.41a1.07,1.07,0,0,0,.25.8,1.36,1.36,0,0,0,.88.23h1.25v1.69h-1.6a3.08,3.08,0,0,1-2.1-.64,2.65,2.65,0,0,1-.73-2.08V43.36h-1.15V41.7h1.15V39.27h2.05V41.7h2.38v1.66Z"/><path class="cls-1" d="M391.48,40a1.28,1.28,0,0,1-.37-.92,1.28,1.28,0,0,1,1.3-1.3,1.22,1.22,0,0,1,.9.38,1.23,1.23,0,0,1,.38.92,1.24,1.24,0,0,1-.38.92,1.22,1.22,0,0,1-.9.38A1.27,1.27,0,0,1,391.48,40Zm1.92,1.67v9.79h-2V41.7Z"/><path class="cls-1" d="M404.61,47.35h-7.48a2.7,2.7,0,0,0,2.79,2.6,2.37,2.37,0,0,0,2.31-1.37h2.19a4.45,4.45,0,0,1-1.61,2.21,4.76,4.76,0,0,1-2.89.86,5,5,0,0,1-2.51-.63,4.49,4.49,0,0,1-1.74-1.77,5.45,5.45,0,0,1-.63-2.66,5.55,5.55,0,0,1,.61-2.66,4.29,4.29,0,0,1,1.72-1.76,5.08,5.08,0,0,1,2.55-.63,5,5,0,0,1,2.47.61,4.29,4.29,0,0,1,1.69,1.69,5.16,5.16,0,0,1,.6,2.52A5.9,5.9,0,0,1,404.61,47.35Zm-2-1.63a2.31,2.31,0,0,0-.8-1.8,2.86,2.86,0,0,0-1.94-.67,2.57,2.57,0,0,0-1.79.67,2.78,2.78,0,0,0-.89,1.8Z"/><path class="cls-1" d="M407.8,51.23a3.59,3.59,0,0,1-1.45-1.13,2.94,2.94,0,0,1-.57-1.61h2.1a1.43,1.43,0,0,0,.6,1,2.14,2.14,0,0,0,1.36.42,2.28,2.28,0,0,0,1.32-.33,1,1,0,0,0,.47-.85.87.87,0,0,0-.52-.81,9.41,9.41,0,0,0-1.67-.59,15.63,15.63,0,0,1-1.79-.59,3.19,3.19,0,0,1-1.2-.87,2.25,2.25,0,0,1-.51-1.54,2.4,2.4,0,0,1,.47-1.43,3.07,3.07,0,0,1,1.32-1,4.89,4.89,0,0,1,2-.38,4.11,4.11,0,0,1,2.69.85,3,3,0,0,1,1.09,2.3h-2a1.45,1.45,0,0,0-.53-1,2,2,0,0,0-1.3-.39,2.15,2.15,0,0,0-1.23.3.94.94,0,0,0-.42.8.87.87,0,0,0,.28.66,2,2,0,0,0,.69.42c.28.1.68.22,1.21.38a13.9,13.9,0,0,1,1.75.57,3.27,3.27,0,0,1,1.18.87,2.23,2.23,0,0,1,.52,1.51,2.53,2.53,0,0,1-.46,1.49,3.1,3.1,0,0,1-1.31,1,4.83,4.83,0,0,1-2,.37A4.91,4.91,0,0,1,407.8,51.23Z"/><path class="cls-1" d="M421.45,51a4.61,4.61,0,0,1-1.76-1.77,5.45,5.45,0,0,1-.64-2.66,5.24,5.24,0,0,1,.66-2.65,4.51,4.51,0,0,1,1.8-1.77,5.12,5.12,0,0,1,2.54-.63,5.17,5.17,0,0,1,2.54.63,4.48,4.48,0,0,1,1.79,1.77,5.24,5.24,0,0,1,.66,2.65,5.17,5.17,0,0,1-.68,2.65A4.67,4.67,0,0,1,426.53,51a5.34,5.34,0,0,1-2.57.63A5,5,0,0,1,421.45,51Zm4-1.5a2.78,2.78,0,0,0,1.11-1.12,3.54,3.54,0,0,0,.43-1.81,3.68,3.68,0,0,0-.41-1.8,2.63,2.63,0,0,0-1.08-1.11A3,3,0,0,0,424,43.3a2.93,2.93,0,0,0-1.45.38,2.57,2.57,0,0,0-1.05,1.11,3.8,3.8,0,0,0-.39,1.8,3.46,3.46,0,0,0,.8,2.44,2.66,2.66,0,0,0,2,.86A3,3,0,0,0,425.42,49.52Z"/><path class="cls-1" d="M434.8,43.36H433v8.13h-2V43.36h-1.15V41.7h1.15V41a3.09,3.09,0,0,1,.9-2.46,4.27,4.27,0,0,1,2.81-.77v1.69a1.9,1.9,0,0,0-1.29.34A1.58,1.58,0,0,0,433,41v.69h1.82Z"/><path class="cls-1" d="M448.69,44.6A3.34,3.34,0,0,1,447.27,46a5.28,5.28,0,0,1-2.51.52h-2.24v5h-2V39.15h4.26a5.48,5.48,0,0,1,2.41.48A3.36,3.36,0,0,1,448.64,41a3.57,3.57,0,0,1,.49,1.86A3.81,3.81,0,0,1,448.69,44.6Zm-2.2-.29a2,2,0,0,0,.56-1.49c0-1.35-.76-2-2.29-2h-2.24v4h2.24A2.49,2.49,0,0,0,446.49,44.31Z"/><path class="cls-1" d="M457.52,51.49,452.74,46v5.52h-2V39.15h2v5.63l4.8-5.63h2.54l-5.37,6.18,5.45,6.16Z"/><path class="cls-1" d="M463.61,39.15V47a2.81,2.81,0,0,0,.74,2.11,2.84,2.84,0,0,0,2,.71,2.87,2.87,0,0,0,2.07-.71,2.81,2.81,0,0,0,.74-2.11V39.15h2V47a4.71,4.71,0,0,1-.66,2.56,4,4,0,0,1-1.75,1.56,5.77,5.77,0,0,1-2.44.52A5.61,5.61,0,0,1,464,51.1a4,4,0,0,1-1.74-1.56,4.88,4.88,0,0,1-.63-2.56V39.15Z"/><path class="cls-1" d="M89.92,1.71h3.76V29.18H89.92V22.93c-2.34,1-4.67,2-6.65,2.82l-1.58-3.67c2.07-.64,5.13-1.7,8.23-2.82V12H82.73V8.36h7.19Zm15.66,23.62c1.19,0,1.37-1.19,1.58-6.1a10.84,10.84,0,0,0,3.46,1.67c-.36,5.79-1.27,8-4.67,8h-4c-3.46,0-4.46-1.21-4.46-5.46V1.71h3.73v9.14a61.39,61.39,0,0,0,6.22-4.61l2.71,3.15a79.78,79.78,0,0,1-8.93,5.28v8.78c0,1.7.15,1.88,1.28,1.88Z"/><path class="cls-1" d="M123.73,21.93a38.59,38.59,0,0,1-6,6.89,26,26,0,0,0-2.64-2.28,24.3,24.3,0,0,0,5.13-5.92ZM142.31,4.57V8.12H115.57V4.57h11.75c-.43-.88-.91-1.79-1.31-2.58L129.56.86c.67,1.13,1.52,2.58,2.07,3.71ZM131,19.14v6.64c0,1.82-.33,2.77-1.73,3.28a16.36,16.36,0,0,1-5.56.55,12.89,12.89,0,0,0-1.15-3.49c1.55.06,3.46,0,4,0s.66-.09.66-.49V19.14H119V9.64h20.06v9.5ZM122.64,16h12.63V12.76H122.64ZM137,20.53a64.15,64.15,0,0,1,5.31,6.22l-3.19,2.13a50.16,50.16,0,0,0-5.13-6.5Z"/><path class="cls-1" d="M164.53,13c2,5.91,5.68,10.68,11.35,13a14.49,14.49,0,0,0-2.67,3.4c-5.49-2.58-9-7-11.38-12.87a20.94,20.94,0,0,1-11.35,12.9,10.69,10.69,0,0,0-2.7-3.07,18.18,18.18,0,0,0,11-13.35H148.35V9.3H159.4c.3-2.85.27-5.61.3-8.1h4c0,2.49-.06,5.28-.36,8.1h11.93V13Z"/><path class="cls-1" d="M208.09,21.59H196.31v3.89c0,1.88-.45,2.79-1.88,3.31a17.94,17.94,0,0,1-5.92.58,15.11,15.11,0,0,0-1.49-3.5c1.95.1,4.19.1,4.8.07s.79-.16.79-.55v-3.8H181V18.26h11.57V16.37A22.24,22.24,0,0,0,196,14.61h-9.56V11.49h13.69l.73-.19,2.3,1.8a29.41,29.41,0,0,1-6.89,4.58v.58h11.78Zm-23.25-9h-3.4V6h4.64A23.16,23.16,0,0,0,184,2.81L187,1.44a18,18,0,0,1,2.8,4L188.66,6h5.1a20,20,0,0,0-2-3.88L195,.89a17,17,0,0,1,2.39,4.37l-1.79.7h3.95a32.74,32.74,0,0,0,2.61-4.58L205.9,2.5c-.82,1.19-1.73,2.37-2.58,3.46h4.44v6.65H204.2V9.15H184.84Z"/><path class="cls-1" d="M219.26,12.06a20.19,20.19,0,0,1-4.52,3.49,12.6,12.6,0,0,0-1.85-2.64A15.63,15.63,0,0,0,218,9.36h-4.5V6.51h2.37a16.85,16.85,0,0,0-1.61-3.77l2.55-1.06a12,12,0,0,1,1.82,3.74l-2.46,1.09h3.07V1.17h3.34V6.51h5.74V9.36H223.9c1.37.79,3.07,1.79,3.59,2.16L225.6,14c-.66-.64-1.85-1.64-3-2.55V14.8h-3.34Zm4.89,15.54c-.61-.45-1.4-1-2.31-1.54a21.17,21.17,0,0,1-7.19,3.4A10.16,10.16,0,0,0,213,26.75a19.45,19.45,0,0,0,6-2.33c-1.43-.76-3-1.46-4.31-2,.54-.79,1.12-1.73,1.73-2.76h-2.31V16.71h3.79c.28-.61.52-1.19.73-1.76l3.19.57c-.15.4-.33.79-.52,1.19h3.86l.54-.09,2,.73A16.5,16.5,0,0,1,224.12,24a24.92,24.92,0,0,1,2.15,1.34Zm-4.28-8c-.31.58-.61,1.12-.91,1.61.82.39,1.67.82,2.46,1.24a11.56,11.56,0,0,0,2.12-2.85Zm8.19-16.88c-1,1.37-1.94,2.74-2.73,3.68l-2.31-1a29.85,29.85,0,0,0,2-3.83Zm11.17,7.35a35.85,35.85,0,0,1-2.91,10.78,14.57,14.57,0,0,0,5.52,5.55,11.07,11.07,0,0,0-2.33,2.85,16.11,16.11,0,0,1-5.13-5.16,18.79,18.79,0,0,1-6.74,5.56,15.89,15.89,0,0,0-1.91-3,14.77,14.77,0,0,0,6.86-5.79,39,39,0,0,1-2.16-6.35,20.71,20.71,0,0,1-1.61,2.7,17.08,17.08,0,0,0-2.58-2.3c2.43-3.16,3.77-8.29,4.46-13.72l3.28.48c-.24,1.7-.54,3.4-.91,5h8.08v3.34Zm-6.67,0A42.73,42.73,0,0,0,234.41,17a33.42,33.42,0,0,0,1.48-6.92Z"/><path class="cls-1" d="M273.32,20.81H262v4.58c0,1.94-.46,2.91-1.94,3.46s-3.4.61-5.89.61a13.13,13.13,0,0,0-1.58-3.68c1.88.06,4.16.06,4.76.06s.79-.12.79-.54V20.81H246.88V17.38h11.26V15.77a21.12,21.12,0,0,0,3.71-2.49h-9.78V9.91h13.42l.82-.18,2.4,1.88A30.59,30.59,0,0,1,262,16.86v.52h11.32ZM250.59,11H247V4.05h11.36a15.31,15.31,0,0,0-1.19-2L260.82,1a14.27,14.27,0,0,1,1.85,3.1h10.44v7h-3.73V7.45H250.59Z"/><path class="cls-1" d="M294.66,1.2c0,1.27-.09,2.91-.21,4.73.42,4.1,2.27,15.54,12.87,20.22a9.47,9.47,0,0,0-2.64,3.12c-6.74-3.21-10.11-9.13-11.87-14.35a24.77,24.77,0,0,1-11.17,14.54,11.45,11.45,0,0,0-3-2.95C291,19.93,290.38,6.33,290.5,1.2Z"/><path class="cls-1" d="M334.88,9.79a31.82,31.82,0,0,1-6.25,10.86A29.3,29.3,0,0,0,340.1,25.9a16.9,16.9,0,0,0-2.43,3.37,30.23,30.23,0,0,1-11.87-5.95,33.56,33.56,0,0,1-12.29,6.14,18.34,18.34,0,0,0-2.18-3.37,31.21,31.21,0,0,0,11.8-5.38,34,34,0,0,1-6.46-10.92H311.9V6.27h12.81A22.52,22.52,0,0,0,323,2L326.87.86a25.51,25.51,0,0,1,2.06,4.59l-2.61.82h13.2V9.79Zm-14.48,0a26.42,26.42,0,0,0,5.46,8.41,24.36,24.36,0,0,0,4.95-8.41Z"/><path class="cls-1" d="M351.21,5.87a44,44,0,0,1-1.61,6h5.68v14h-5.8v2.22h-3V18.65c-.4.58-.82,1.15-1.25,1.67A20.27,20.27,0,0,0,344,16c1.85-2.49,3.09-6.16,3.85-10.14h-3.22V2.59h11V5.87Zm1,9.23h-2.73v7.59h2.73Zm20.4,1.82h-3.19V29.55H366V16.92h-3.46c-.18,4.46-1.06,9.53-4.19,12.84a13.9,13.9,0,0,0-2.73-2.09c2.61-2.83,3.37-7,3.55-10.75h-2.82v-3.4h2.88V6h-2.09V2.68H372V6h-2.58v7.5h3.19ZM366,13.52V6h-3.4v7.5Z"/><path class="cls-1" d="M401.33,25.6c.63,0,.75-.58.85-4.34a10.62,10.62,0,0,0,3.33,1.52c-.33,4.92-1.24,6.25-3.82,6.25H399c-2.88,0-3.8-1-3.8-4.55V19h-4.43c-.39,4-2.58,8.17-10.92,10.48a16,16,0,0,0-2.55-3c7.07-1.91,9.16-4.76,9.68-7.47h-7.16V15.65h7.31V13h3.73v2.61h8.08v8.8c0,1,.09,1.15.73,1.15ZM381.69,10.15h-3.64v-6h11.23c-.31-.82-.61-1.64-.95-2.37l3.86-.94a29.29,29.29,0,0,1,1.52,3.31h10.71V9.85H400.6V7.3H381.69Zm-3,1.91a32.19,32.19,0,0,0,8.68-4.25l2.86,1.67A35.07,35.07,0,0,1,381,14.64ZM395,7.75a56,56,0,0,1,8.77,4.77l-2.64,2.15a51.28,51.28,0,0,0-8.56-5Z"/><path class="cls-1" d="M436.51,6.42V21.56h-3.8V20.05h-6.86v9.47H422V20.05H415.2v1.67h-3.64V6.42H422V1.17h3.82V6.42ZM422,16.5V10H415.2V16.5Zm10.68,0V10h-6.86V16.5Z"/><path class="cls-1" d="M448.65,12.28a79.73,79.73,0,0,1-2.22,12.59l-3.64-1.45a59.93,59.93,0,0,0,2.34-11.81Zm5.7-2.46V23.9c0,1.43.25,1.67,1.7,1.67h4.35c1.51,0,1.79-1,2-5.71a10.92,10.92,0,0,0,3.4,1.52c-.43,5.77-1.4,7.56-5.13,7.56h-5c-3.95,0-5-1.21-5-5V9.82Zm-.27-8.17a54.63,54.63,0,0,1,8.41,6.29l-2.67,2.82a52.74,52.74,0,0,0-8.2-6.65Zm13.24,9a55.74,55.74,0,0,1,3.91,11.29l-3.67,1.52A51.56,51.56,0,0,0,464,12Z"/><rect class="cls-1" width="13.33" height="53.33"/><path class="cls-2" d="M16,13.33A13.34,13.34,0,0,1,16,40V53.33A26.67,26.67,0,1,0,16,0Z"/><path class="cls-1" d="M52,0V20H44.49a29.61,29.61,0,0,1,0,13.33H52v20H65.28V0Z"/></g></g></svg>